<svg width="185" height="186" viewBox="0 0 185 186" fill="none" xmlns="http://www.w3.org/2000/svg">
<path d="M88.5592 70.755C93.2062 70.1964 98.2711 70.7427 102.439 72.8809C106.095 74.7556 109.062 77.8543 111.38 81.3813C113.551 84.6866 115.152 88.3674 115.379 92.2435C115.646 96.818 113.997 101.664 111.457 105.587C109.358 108.827 106.651 111.439 103.29 113.177C99.6875 115.041 95.3323 115.903 91.0999 115.42C84.4542 114.661 78.1097 110.589 74.4677 105.278C71.0847 100.344 70.0336 94.3401 69.998 88.2296C69.9337 77.162 73.2027 65.7464 80.2605 57.7682C87.5842 49.4889 98.9885 44.9103 110.438 43.6001C119.338 42.5808 128.266 43.5367 135.846 47.3777C141.607 50.2974 146.591 54.8831 150.668 60.1293C155.877 66.8326 159.608 74.6143 161.255 82.7985C163.616 94.5373 161.69 107.105 157.02 118.455C151.2 132.598 141.119 144.849 128.318 152.694C117.274 159.462 104.205 162.951 91.1466 162.612C74.9347 162.192 58.7381 155.875 46.6826 145.138C38.2154 137.597 31.7907 127.875 27.8616 117.274C23.3725 105.162 22.1409 91.9009 23.8625 79.0202C25.7952 64.5546 31.4522 50.568 40.3304 39.1132C47.7822 29.4996 57.5028 21.6693 68.3265 16.2082C77.7396 11.4584 87.987 8.50089 98.4401 7.23465C108.938 5.96313 119.643 6.39794 129.965 8.41524C123.675 4.98149 116.713 2.98487 111.061 1.78494L96.971 0L84.6338 0.251589L71.0104 2.39985L59.3163 6.05013L48.4656 11.1326L36.2687 19.331L26.0009 28.3054L17.612 38.3996L10.4889 50.3996L4.5616 64.5981L0.974528 78.8771L0 88.8602L0.30168 100.78L1.83916 112.235L5.20465 124.427L11.0417 137.445L18.8075 148.931L27.7091 159.086L37.9571 167.899L50.1435 175.483L64.8921 181.553L78.9877 184.851L96.0566 186L112.373 183.832L130.688 177.459C136.535 174.877 141.558 172.034 146.933 167.99C152.309 163.946 158.034 158.703 162.787 153.146C167.539 147.59 171.317 141.721 174.24 136.326L180.761 121.785L183.915 109.815L185 96L184.578 82.4065L181.795 69.7916L177.314 58.3965L169.83 46.6589L161.541 37.7442L152.208 30.4231L141.578 25.1193L129.522 21.2772L118.471 19.9864L106.606 20.5309L93.8667 23.6993L82.0416 28.6077L72.2364 35.0614L62.6917 44.6234L54.815 55.3613L49.7717 66.7862L47.2398 78.3931L46.637 90.0707L47.742 99.9226L50.5451 109.21L56.2921 119.485L64.1683 128.4L72.4871 134.219L80.6253 137.586L89.6168 138.857L98.0758 138.736L106.113 137.163L114.422 133.442L121.706 128.279L128.187 121.472L133.561 113.294L136.636 104.339L138.043 95.8892L138.005 88.094L136.184 80.2889L132.627 73.23L127.493 67.492L122.067 63.9428L115.989 62.0973L108.143 61.6437L101.191 63.0755L95.0974 65.6314L88.5592 70.755Z" fill="url(#paint0_linear_318_1388)"/>
<defs>
<linearGradient id="paint0_linear_318_1388" x1="93" y1="195" x2="93" y2="-19.5" gradientUnits="userSpaceOnUse">
<stop stop-color="#3B6CE8"/>
<stop offset="0.223255" stop-color="#3B6CE8"/>
<stop offset="1" stop-color="#97B6F9"/>
</linearGradient>
</defs>
</svg>
